<?xml version="1.0" encoding="UTF-8" standalone="no"?>
<svg
   xmlns:dc="http://purl.org/dc/elements/1.1/"
   xmlns:cc="http://creativecommons.org/ns#"
   xmlns:rdf="http://www.w3.org/1999/02/22-rdf-syntax-ns#"
   xmlns:svg="http://www.w3.org/2000/svg"
   xmlns="http://www.w3.org/2000/svg"
   xmlns:sodipodi="http://sodipodi.sourceforge.net/DTD/sodipodi-0.dtd"
   xmlns:inkscape="http://www.inkscape.org/namespaces/inkscape"
   id="Layer_1"
   data-name="Layer 1"
   viewBox="0 0 251.34 376"
   version="1.1"
   sodipodi:docname="tmdb.svg"
   width="251.34"
   height="376"
   inkscape:version="0.92.3 (2405546, 2018-03-11)">
  <metadata
     id="metadata4582">
    <rdf:RDF>
      <cc:Work
         rdf:about="">
        <dc:format>image/svg+xml</dc:format>
        <dc:type
           rdf:resource="http://purl.org/dc/dcmitype/StillImage" />
        <dc:title>PrimaryLogo_Green</dc:title>
      </cc:Work>
    </rdf:RDF>
  </metadata>
  <sodipodi:namedview
     pagecolor="#ffffff"
     bordercolor="#666666"
     borderopacity="1"
     objecttolerance="10"
     gridtolerance="10"
     guidetolerance="10"
     inkscape:pageopacity="0"
     inkscape:pageshadow="2"
     inkscape:window-width="1920"
     inkscape:window-height="1017"
     id="namedview4580"
     showgrid="false"
     inkscape:zoom="1.2316035"
     inkscape:cx="-12.361436"
     inkscape:cy="111.405"
     inkscape:window-x="-8"
     inkscape:window-y="1072"
     inkscape:window-maximized="1"
     inkscape:current-layer="Layer_1" />
  <defs
     id="defs4553">
    <style
       id="style4551">.cls-1{fill:#01d277;}</style>
  </defs>
  <title
     id="title4555">PrimaryLogo_Green</title>
  <path
     class="cls-1"
     d="m 202.08377,265.60334 c 11.20398,0 18.78586,-7.68376 18.78586,-19.03829 v -123.8733 c 0,-11.35453 -7.58188,-19.03829 -18.78586,-19.03829 H 46.785853 C 35.581872,103.65346 28,111.33722 28,122.69175 v 154.24279 l 9.638493,-11.32343 v 0 -142.91936 a 9.1627078,9.2858311 0 0 1 9.14736,-9.27028 H 202.08377 a 9.1627078,9.2858311 0 0 1 9.14736,9.27028 v 123.8733 a 9.1627078,9.2858311 0 0 1 -9.14736,9.27028 H 61.08244 l -9.638493,9.76801 -0.06139,-0.0778"
     id="path4557"
     inkscape:connector-curvature="0"
     style="fill:#01d277;stroke-width:0.77253467" />
  <polygon
     class="cls-1"
     points="68.32,77.29 68.32,49.52 76.96,49.52 76.96,42.63 52.74,42.63 52.74,49.52 61.38,49.52 61.38,77.29 "
     id="polygon4559"
     style="fill:#01d277"
     transform="matrix(0.76739596,0,0,0.77770779,28,103.64569)" />
  <polygon
     class="cls-1"
     points="89.14,77.29 89.14,63.4 99.53,63.4 99.53,77.29 106.47,77.29 106.47,42.58 99.53,42.58 99.53,56.46 89.14,56.46 89.14,42.58 82.2,42.58 82.2,77.29 "
     id="polygon4561"
     style="fill:#01d277"
     transform="matrix(0.76739596,0,0,0.77770779,28,103.64569)" />
  <polygon
     class="cls-1"
     points="112.28,42.58 112.28,77.29 132.25,77.29 132.25,70.34 119.23,70.34 119.23,63.4 130.35,63.4 130.35,56.46 119.23,56.46 119.23,49.52 131.66,49.52 131.66,42.58 "
     id="polygon4563"
     style="fill:#01d277"
     transform="matrix(0.76739596,0,0,0.77770779,28,103.64569)" />
  <polygon
     class="cls-1"
     points="84.53,121.35 84.53,86.11 82.35,86.11 68.66,101.35 54.97,86.11 52.74,86.11 52.74,121.35 59.78,121.35 59.78,101.98 68.66,111.3 77.54,101.98 77.5,121.35 "
     id="polygon4565"
     style="fill:#01d277"
     transform="matrix(0.76739596,0,0,0.77770779,28,103.64569)" />
  <path
     class="cls-1"
     d="m 110.90946,170.583 c -18.325416,0 -18.325416,27.81861 0,27.81861 18.32542,0 18.32542,-27.81861 0,-27.81861 z m 0,22.23467 c -10.65146,0 -10.65146,-16.68184 0,-16.68184 10.65146,0 10.65146,16.68184 0,16.68184 z"
     id="path4567"
     inkscape:connector-curvature="0"
     style="fill:#01d277;stroke-width:0.77253467" />
  <rect
     class="cls-1"
     x="154.90427"
     y="171.03406"
     width="5.3257279"
     height="26.986462"
     id="rect4569"
     style="fill:#01d277;stroke-width:0.77253467" />
  <polygon
     class="cls-1"
     points="178.13,121.35 198.09,121.35 198.09,114.41 185.07,114.41 185.07,107.47 196.19,107.47 196.19,100.53 185.07,100.53 185.07,93.59 197.5,93.59 197.5,86.65 178.13,86.65 "
     id="polygon4571"
     style="fill:#01d277"
     transform="matrix(0.76739596,0,0,0.77770779,28,103.64569)" />
  <path
     class="cls-1"
     d="m 76.407337,205.30765 h -7.934874 v 26.98646 h 7.934874 c 17.726847,0 17.726847,-26.98646 0,-26.98646 z m 0,21.58917 h -2.609146 v -16.19188 h 2.609146 c 10.352172,0 10.352172,16.19188 0,16.19188 z"
     id="path4573"
     inkscape:connector-curvature="0"
     style="fill:#01d277;stroke-width:0.77253467" />
  <path
     class="cls-1"
     d="m 109.56652,218.77755 c 1.67292,-1.16656 2.3866,-3.28193 2.45566,-5.31952 0.11511,-4.75957 -2.83169,-8.18926 -7.55885,-8.18926 H 93.919313 v 27.02534 h 10.544017 a 7.9195263,8.0259444 0 0 0 7.85814,-8.11927 6.469148,6.5560767 0 0 0 -2.75495,-5.39729 z m -10.283109,-8.11927 h 4.734829 a 2.6935598,2.7297544 0 0 1 0,5.44396 h -4.734829 z m 4.734829,16.23076 h -4.734829 v -5.39729 h 4.734829 a 2.6168202,2.6519836 0 0 1 2.67822,2.68309 2.6475161,2.6830919 0 0 1 -2.67822,2.72198 z"
     id="path4575"
     inkscape:connector-curvature="0"
     style="fill:#01d277;stroke-width:0.77253467" />
  <polygon
     class="cls-1"
     points="161.15,86.65 153.14,86.65 144.01,105.38 134.87,86.65 126.86,86.65 143.23,122.08 144.79,122.08 "
     id="polygon4577"
     style="fill:#01d277"
     transform="matrix(0.76739596,0,0,0.77770779,28,103.64569)" />
</svg>
