<?xml version="1.0" encoding="UTF-8" standalone="no"?>
<svg
   xmlns:dc="http://purl.org/dc/elements/1.1/"
   xmlns:cc="http://creativecommons.org/ns#"
   xmlns:rdf="http://www.w3.org/1999/02/22-rdf-syntax-ns#"
   xmlns:svg="http://www.w3.org/2000/svg"
   xmlns="http://www.w3.org/2000/svg"
   id="svg9793"
   version="1.1"
   viewBox="0 0 24 24"
   height="24"
   width="24">
  <metadata
     id="metadata9799">
    <rdf:RDF>
      <cc:Work
         rdf:about="">
        <dc:format>image/svg+xml</dc:format>
        <dc:type
           rdf:resource="http://purl.org/dc/dcmitype/StillImage" />
        <dc:title></dc:title>
      </cc:Work>
    </rdf:RDF>
  </metadata>
  <defs
     id="defs9797" />
  <path
     style="fill:#ffffff"
     id="path9791"
     d="M18.5 13c-3.037 0-5.5 2.463-5.5 5.5s2.463 5.5 5.5 5.5 5.5-2.463 5.5-5.5-2.463-5.5-5.5-5.5zm-1.5 8v-5l4 2.567-4 2.433zm-3-10c0-1.657-1.343-3-3-3s-3 1.343-3 3 1.343 3 3 3 3-1.343 3-3zm-5 0c0-1.103.897-2 2-2s2 .897 2 2-.897 2-2 2-2-.897-2-2zm-.073 6.687l-.125 1c-2.648-.756-4.731-2.839-5.488-5.488l1-.125c.682 2.195 2.418 3.93 4.613 4.613zm2.924 4.27c-.282.022-.564.043-.851.043-6.075 0-11-4.925-11-11s4.925-11 11-11 11 4.925 11 11c0 .287-.021.569-.043.851-.611-.319-1.27-.56-1.965-.701l.008-.15c0-4.962-4.037-9-9-9s-9 4.038-9 9 4.037 9 9 9l.15-.008c.141.696.382 1.354.701 1.965zm-2.797-5.286c-1.745-.599-3.125-1.978-3.725-3.724l1.025-.128c.508 1.293 1.534 2.319 2.827 2.827l-.127 1.025zm3.892-11.342c1.746.599 3.125 1.979 3.725 3.725l-1.025.128c-.508-1.293-1.534-2.32-2.827-2.828l.127-1.025zm5.741 3.473l-1 .125c-.683-2.195-2.418-3.931-4.613-4.613l.125-1c2.649.755 4.732 2.839 5.488 5.488z" />
</svg>
