<?xml version="1.0" encoding="UTF-8" standalone="no"?>
<svg
   xmlns:dc="http://purl.org/dc/elements/1.1/"
   xmlns:cc="http://creativecommons.org/ns#"
   xmlns:rdf="http://www.w3.org/1999/02/22-rdf-syntax-ns#"
   xmlns:svg="http://www.w3.org/2000/svg"
   xmlns="http://www.w3.org/2000/svg"
   version="1.1"
   id="Capa_1"
   x="0px"
   y="0px"
   viewBox="0 0 1365.7715 141.8457"
   xml:space="preserve"
   width="1685"
   height="175"><metadata
   id="metadata12616"><rdf:RDF><cc:Work
       rdf:about=""><dc:format>image/svg+xml</dc:format><dc:type
         rdf:resource="http://purl.org/dc/dcmitype/StillImage" /><dc:title></dc:title></cc:Work></rdf:RDF></metadata><defs
   id="defs12614" />
<g
   id="layer4"
   transform="matrix(0.66749525,0,0,0.50303452,9.5663258,-88.295563)"><rect
     style="fill:#ffffff;fill-opacity:0;stroke:#ffffff;stroke-width:0.81054688;stroke-opacity:1"
     id="rect13722"
     width="313.31061"
     height="216.84798"
     x="831.49323"
     y="253.40306"
     ry="0" /><rect
     style="fill:#ffffff;fill-opacity:0;stroke:#ffffff;stroke-width:7.26273012;stroke-opacity:1"
     id="rect13724"
     width="359.33408"
     height="276.76208"
     x="34.865833"
     y="70.96064" /><rect
     style="fill:#d80027;fill-opacity:1;stroke:#ffffff;stroke-width:1.16910601;stroke-opacity:1"
     id="rect13730"
     width="2054.8018"
     height="288.41763"
     x="-16.514938"
     y="174.01715" /></g>
<g
   id="g12581"
   transform="translate(0,-273.1543)">
</g>
<g
   id="g12583"
   transform="translate(0,-273.1543)">
</g>
<g
   id="g12585"
   transform="translate(0,-273.1543)">
</g>
<g
   id="g12587"
   transform="translate(0,-273.1543)">
</g>
<g
   id="g12589"
   transform="translate(0,-273.1543)">
</g>
<g
   id="g12591"
   transform="translate(0,-273.1543)">
</g>
<g
   id="g12593"
   transform="translate(0,-273.1543)">
</g>
<g
   id="g12595"
   transform="translate(0,-273.1543)">
</g>
<g
   id="g12597"
   transform="translate(0,-273.1543)">
</g>
<g
   id="g12599"
   transform="translate(0,-273.1543)">
</g>
<g
   id="g12601"
   transform="translate(0,-273.1543)">
</g>
<g
   id="g12603"
   transform="translate(0,-273.1543)">
</g>
<g
   id="g12605"
   transform="translate(0,-273.1543)">
</g>
<g
   id="g12607"
   transform="translate(0,-273.1543)">
</g>
<g
   id="g12609"
   transform="translate(0,-273.1543)">
</g>
<g
   id="layer5"
   transform="translate(-334.35059,-234.3156)"><rect
     style="fill:#ffffff;fill-opacity:1;stroke:#ffffff;stroke-width:0.81054688;stroke-opacity:1"
     id="rect13726"
     width="401.28452"
     height="242.3141"
     x="795.22333"
     y="180.09146" /><g
     id="g12579"
     transform="translate(341.31741,-20.957277)"
     style="fill:#d80027;fill-opacity:1">
	<path
   d="m 621.66288,319.12847 c 2.407,-2.068 3.577,-5.109 3.577,-9.297 0,-4.133 -1.193,-7.307 -3.647,-9.701 -2.431,-2.369 -6.148,-3.571 -11.048,-3.571 h -15.915 v 25.73 h 15.576 c 5.161,0 9.016,-1.063 11.457,-3.161 z"
   id="path12575"
   style="fill:#d80027;fill-opacity:1" />
	<g
   id="g13163"
   transform="translate(446.81488,130.41747)"
   style="fill:#d80027;fill-opacity:1"><path
     id="path12577"
     d="M 0,65.241 V 349.759 H 415 V 65.241 Z m 70.675,173.012 c -18.293,0 -33.123,-14.83 -33.123,-33.123 0,-18.293 14.83,-33.123 33.123,-33.123 18.293,0 33.123,14.83 33.123,33.123 0,18.293 -14.83,33.123 -33.123,33.123 z m 136.093,11.303 h -22.422 l -0.411,-0.328 c -2.099,-1.679 -3.467,-4.433 -4.067,-8.185 -0.552,-3.451 -0.832,-6.769 -0.832,-9.859 v -6.979 c 0,-4.492 -1.212,-8.003 -3.602,-10.435 -2.417,-2.456 -5.779,-3.65 -10.28,-3.65 h -17.337 v 39.437 H 125.03 v -101.66 h 38.701 c 11.546,0 20.743,2.699 27.335,8.023 6.688,5.403 10.078,13.012 10.078,22.614 0,5.404 -1.442,10.124 -4.285,14.028 -2.217,3.044 -5.267,5.647 -9.089,7.767 4.433,1.864 7.785,4.556 9.99,8.029 2.696,4.247 4.063,9.533 4.063,15.711 v 7.25 c 0,2.622 0.361,5.407 1.074,8.278 0.66,2.664 1.774,4.637 3.309,5.864 l 0.563,0.451 v 3.644 z m 80.567,0 h -70.558 v -101.66 h 70.422 v 18.246 h -47.636 v 21.801 h 40.859 v 18.246 h -40.859 v 25.121 h 47.771 v 18.246 z m 86.866,-66.363 -0.552,1.65 h -21.824 v -1.5 c 0,-6.092 -1.443,-10.781 -4.29,-13.937 -2.805,-3.111 -7.331,-4.688 -13.454,-4.688 -5.458,0 -9.671,2.155 -12.879,6.589 -3.273,4.522 -4.933,10.41 -4.933,17.501 v 19.699 c 0,7.167 1.743,13.091 5.182,17.607 3.39,4.452 7.854,6.617 13.646,6.617 5.714,0 9.953,-1.507 12.602,-4.479 2.693,-3.022 4.059,-7.668 4.059,-13.808 v -1.5 h 21.756 l 0.552,1.65 0.004,0.23 c 0.187,11.009 -3.245,19.89 -10.199,26.396 -6.92,6.473 -16.601,9.755 -28.772,9.755 -12.247,0 -22.344,-4.006 -30.01,-11.906 -7.655,-7.887 -11.537,-18.155 -11.537,-30.521 v -19.583 c 0,-12.311 3.785,-22.573 11.25,-30.504 7.488,-7.957 17.34,-11.991 29.28,-11.991 12.524,0 22.485,3.289 29.605,9.776 7.166,6.531 10.705,15.519 10.519,26.714 z"
     style="fill:#d80027;fill-opacity:1" /></g>
</g></g></svg>